HIERARCHY
ROOT Hips
{
	OFFSET 0.000000 89.005402 0.000000
	CHANNELS 6 Xposition Yposition Zposition Xrotation Yrotation Zrotation
	JOINT Spine
	{
		OFFSET 0.116900 10.681000 0.373400
		CHANNELS 3 Xrotation Yrotation Zrotation
		JOINT Spine1
		{
			OFFSET 0.000000 13.840401 0.053500
			CHANNELS 3 Xrotation Yrotation Zrotation
			JOINT Spine2
			{
				OFFSET 0.000000 14.712700 -0.366200
				CHANNELS 3 Xrotation Yrotation Zrotation
				JOINT Neck
				{
					OFFSET 0.000000 35.415497 -3.314200
					CHANNELS 3 Xrotation Yrotation Zrotation
					JOINT Head
					{
						OFFSET 0.000000 16.899200 1.218300
						CHANNELS 3 Xrotation Yrotation Zrotation
						JOINT HeadTop_End
						{
							OFFSET 0.000000 22.206207 2.192500
							CHANNELS 3 Xrotation Yrotation Zrotation
							End Site
							{
								OFFSET 0.000000 22.314178 0.000000
							}
						}
					}
				}
				JOINT LeftShoulder
				{
					OFFSET 12.896400 26.716293 -4.548400
					CHANNELS 3 Xrotation Yrotation Zrotation
					JOINT LeftArm
					{
						OFFSET 19.027000 -4.857010 -1.718400
						CHANNELS 3 Xrotation Yrotation Zrotation
						JOINT LeftForeArm
						{
							OFFSET 24.179897 0.000000 0.000000
							CHANNELS 3 Xrotation Yrotation Zrotation
							JOINT LeftHand
							{
								OFFSET 27.156403 0.000000 0.000000
								CHANNELS 3 Xrotation Yrotation Zrotation
								JOINT LeftHandIndex1
								{
									OFFSET 16.441200 0.000000 0.000000
									CHANNELS 3 Xrotation Yrotation Zrotation
									JOINT LeftHandIndex2
									{
										OFFSET 4.821899 0.000000 0.000000
										CHANNELS 3 Xrotation Yrotation Zrotation
										JOINT LeftHandIndex3
										{
											OFFSET 6.386497 0.000000 0.000000
											CHANNELS 3 Xrotation Yrotation Zrotation
											JOINT LeftHandIndex4
											{
												OFFSET 5.188988 0.000000 0.000000
												CHANNELS 3 Xrotation Yrotation Zrotation
												End Site
												{
													OFFSET -0.178703 5.185913 0.000177
												}
											}
										}
									}
								}
								JOINT LeftHandThumb1
								{
									OFFSET 6.534897 -5.032593 5.900300
									CHANNELS 3 Xrotation Yrotation Zrotation
									JOINT LeftHandThumb2
									{
										OFFSET 3.818176 -2.204422 2.204423
										CHANNELS 3 Xrotation Yrotation Zrotation
										JOINT LeftHandThumb3
										{
											OFFSET 3.252098 -1.877594 1.877601
											CHANNELS 3 Xrotation Yrotation Zrotation
											JOINT LeftHandThumb4
											{
												OFFSET 5.251778 -3.032120 3.032117
												CHANNELS 3 Xrotation Yrotation Zrotation
												End Site
												{
													OFFSET 0.000023 6.780014 0.000000
												}
											}
										}
									}
								}
							}
						}
					}
				}
				JOINT RightShoulder
				{
					OFFSET -12.896300 26.716293 -4.548400
					CHANNELS 3 Xrotation Yrotation Zrotation
					JOINT RightArm
					{
						OFFSET -19.027000 -4.857010 -1.718400
						CHANNELS 3 Xrotation Yrotation Zrotation
						JOINT RightForeArm
						{
							OFFSET -24.179897 0.000000 0.000000
							CHANNELS 3 Xrotation Yrotation Zrotation
							JOINT RightHand
							{
								OFFSET -27.156403 0.000000 0.000000
								CHANNELS 3 Xrotation Yrotation Zrotation
								JOINT RightHandThumb1
								{
									OFFSET -6.591202 -4.852203 5.988100
									CHANNELS 3 Xrotation Yrotation Zrotation
									JOINT RightHandThumb2
									{
										OFFSET -3.818176 -2.204422 2.204423
										CHANNELS 3 Xrotation Yrotation Zrotation
										JOINT RightHandThumb3
										{
											OFFSET -3.252098 -1.877594 1.877601
											CHANNELS 3 Xrotation Yrotation Zrotation
											JOINT RightHandThumb4
											{
												OFFSET -5.251778 -3.032120 3.032117
												CHANNELS 3 Xrotation Yrotation Zrotation
												End Site
												{
													OFFSET -0.000023 6.780014 0.000000
												}
											}
										}
									}
								}
								JOINT RightHandIndex1
								{
									OFFSET -16.029404 0.000000 0.000000
									CHANNELS 3 Xrotation Yrotation Zrotation
									JOINT RightHandIndex2
									{
										OFFSET -5.213303 0.000000 0.000000
										CHANNELS 3 Xrotation Yrotation Zrotation
										JOINT RightHandIndex3
										{
											OFFSET -6.386528 0.000000 0.000000
											CHANNELS 3 Xrotation Yrotation Zrotation
											JOINT RightHandIndex4
											{
												OFFSET -5.189026 0.000000 0.000000
												CHANNELS 3 Xrotation Yrotation Zrotation
												End Site
												{
													OFFSET 0.236702 5.183624 0.001972
												}
											}
										}
									}
								}
							}
						}
					}
				}
			}
		}
	}
	JOINT LeftUpLeg
	{
		OFFSET 14.073000 -7.904099 -1.463000
		CHANNELS 3 Xrotation Yrotation Zrotation
		JOINT LeftLeg
		{
			OFFSET -0.109806 -34.073280 4.093200
			CHANNELS 3 Xrotation Yrotation Zrotation
			JOINT LeftFoot
			{
				OFFSET 0.109806 -29.899420 -6.319000
				CHANNELS 3 Xrotation Yrotation Zrotation
				JOINT LeftToeBase
				{
					OFFSET 1.551100 -14.988700 20.535801
					CHANNELS 3 Xrotation Yrotation Zrotation
					JOINT LeftToe_End
					{
						OFFSET 0.221200 0.570800 13.248301
						CHANNELS 3 Xrotation Yrotation Zrotation
						End Site
						{
							OFFSET 0.000000 13.262435 0.000000
						}
					}
				}
			}
		}
	}
	JOINT RightUpLeg
	{
		OFFSET -13.839300 -7.904099 -1.463000
		CHANNELS 3 Xrotation Yrotation Zrotation
		JOINT RightLeg
		{
			OFFSET 0.109694 -34.073219 4.093300
			CHANNELS 3 Xrotation Yrotation Zrotation
			JOINT RightFoot
			{
				OFFSET -0.109694 -29.899384 -6.319200
				CHANNELS 3 Xrotation Yrotation Zrotation
				JOINT RightToeBase
				{
					OFFSET -1.551100 -14.988700 20.535801
					CHANNELS 3 Xrotation Yrotation Zrotation
					JOINT RightToe_End
					{
						OFFSET -0.221200 0.570900 13.248299
						CHANNELS 3 Xrotation Yrotation Zrotation
						End Site
						{
							OFFSET 0.000000 13.262440 0.000000
						}
					}
				}
			}
		}
	}
}
MOTION
Frames: 7
Frame Time: 0.033333
-11.806391 110.134384 116.189957 164.235505 30.845264 156.270712 7.993233 -1.038881 2.444512 15.442072 1.002994 8.502485 15.445580 0.864245 8.522049 -4.712542 -12.936478 4.628999 8.028668 -58.836288 24.376571 0.000001 0.000000 0.000002 0.921980 -0.618962 -9.082031 -16.644910 5.632421 -73.142590 0.000037 -60.376748 0.000029 32.174696 -45.526209 32.120477 0.047076 0.805462 -6.689926 0.047091 0.805517 -6.690530 0.047092 0.805525 -6.690528 -0.000001 0.000002 0.000001 -3.904041 2.504164 20.920181 3.939053 7.948707 0.746824 -0.579469 1.575007 2.538717 -0.000000 0.000000 0.000000 1.012354 0.121910 8.831003 -72.185059 33.426420 62.855888 -0.000003 46.069097 -0.000006 2.970008 6.075648 -19.659859 -1.849257 -3.581795 -6.586141 4.637194 -8.634132 -0.225413 -1.273753 0.137315 -2.094873 0.000002 0.000001 0.000001 0.031134 -0.658611 5.412642 0.031134 -0.658596 5.412649 0.031142 -0.658631 5.412625 -0.000001 -0.000000 -0.000001 -66.809304 -11.815951 57.997336 90.272076 -5.518424 -4.237669 29.719475 1.082963 -38.334577 0.000001 0.000009 0.000014 0.000002 0.000001 -0.000001 -69.869926 25.739442 -21.369124 101.747525 -0.897297 -1.137795 34.824058 2.480815 11.060881 0.000029 -0.000000 0.000023 -0.000000 0.000003 0.000001 
-15.308784 109.968147 118.110260 163.092883 38.183500 155.036319 7.419977 0.286747 4.389316 14.304439 1.999352 10.058357 14.315995 1.861114 10.083949 -4.300649 -12.412368 4.578578 8.025201 -56.424384 23.504433 0.000001 -0.000001 0.000001 1.516798 3.473188 -12.065886 -5.785849 15.211422 -71.272068 -0.000002 -51.933217 0.000018 31.782789 -52.705670 27.668388 0.047080 0.805463 -6.689921 0.047088 0.805520 -6.690533 0.047090 0.805526 -6.690519 -0.000002 -0.000004 -0.000000 -3.904041 2.504163 20.920185 3.939053 7.948702 0.746825 -0.579468 1.575008 2.538716 -0.000000 0.000002 -0.000001 0.942479 -0.960403 9.716578 -61.144618 31.672117 39.770651 0.000003 49.885127 -0.000012 -7.537115 2.240935 -11.952727 -1.849261 -3.581796 -6.586144 4.637190 -8.634133 -0.225418 -1.273752 0.137317 -2.094871 0.000004 0.000001 -0.000000 0.031130 -0.658614 5.412639 0.031130 -0.658599 5.412648 0.031142 -0.658631 5.412623 -0.000001 0.000003 0.000002 -67.830499 -8.909740 62.906848 74.125256 -0.075603 -4.151196 41.747363 -4.123571 -36.913604 -0.000005 -0.000006 0.000019 -0.000001 -0.000001 0.000001 -51.353928 25.335292 -42.579372 85.736236 1.622387 -7.362123 31.669053 2.407132 13.300914 -0.000017 0.000015 0.000028 -0.000000 0.000000 0.000001 
-17.548317 108.217903 118.720932 164.191901 42.272717 151.303758 6.752240 1.318763 5.142922 13.053356 3.093973 11.221915 13.081521 2.931098 11.255263 -2.797779 -11.766497 4.747465 12.349155 -53.035145 26.918348 0.000000 0.000001 0.000001 0.781760 4.280789 -9.739892 8.625238 26.149523 -67.098979 -0.000007 -55.039010 -0.000006 22.607935 -46.073635 16.596441 0.047081 0.805462 -6.689925 0.047089 0.805519 -6.690532 0.047091 0.805522 -6.690524 -0.000002 -0.000001 0.000002 -3.904038 2.504163 20.920183 3.939048 7.948708 0.746825 -0.579468 1.575006 2.538716 -0.000002 0.000001 -0.000001 0.946397 -1.243512 10.301389 -49.537651 24.656122 18.551554 0.000002 47.791954 -0.000007 -18.316723 -7.077461 -11.132804 -1.849257 -3.581795 -6.586145 4.637193 -8.634133 -0.225415 -1.273755 0.137316 -2.094872 -0.000001 0.000000 -0.000000 0.031135 -0.658614 5.412640 0.031128 -0.658597 5.412651 0.031137 -0.658629 5.412622 0.000001 -0.000001 0.000001 -66.966112 -3.974721 69.371090 58.391048 3.747301 -4.974001 50.008845 -8.838467 -35.598492 0.000027 0.000004 0.000017 -0.000001 0.000000 -0.000000 -36.515882 11.195845 -55.664519 61.069473 8.850122 -9.189669 28.380565 1.165204 14.309566 -0.000002 0.000018 -0.000005 -0.000001 0.000000 -0.000001 
-17.970287 105.797813 120.202209 166.742034 45.331334 145.713179 6.285797 2.183974 5.139702 12.186096 4.105390 11.746557 12.231621 3.914346 11.784965 -0.907846 -11.028491 4.620171 16.660035 -49.886237 30.934149 -0.000002 0.000001 0.000001 0.117351 4.150794 -5.773795 18.268808 38.860686 -59.342548 -0.000112 -62.139996 -0.000102 20.105770 -34.740292 13.335657 0.047077 0.805462 -6.689919 0.047090 0.805517 -6.690534 0.047089 0.805523 -6.690523 -0.000001 0.000001 -0.000002 -3.904040 2.504163 20.920183 3.939052 7.948709 0.746821 -0.579470 1.575006 2.538717 0.000001 0.000000 0.000003 0.964358 -0.779952 9.944195 -40.595479 13.526935 3.630301 -0.000000 41.870586 0.000000 -24.597419 -17.252057 -14.604744 -1.849256 -3.581794 -6.586144 4.637188 -8.634138 -0.225414 -1.273754 0.137316 -2.094874 -0.000001 0.000004 0.000001 0.031134 -0.658615 5.412640 0.031128 -0.658599 5.412649 0.031139 -0.658629 5.412622 -0.000003 -0.000001 0.000001 -64.917075 -0.710006 75.059906 41.335041 5.425071 -5.363164 55.716998 -12.796001 -33.187773 -4.026995 -0.262960 3.670901 0.000003 0.000003 0.000001 -25.129763 -3.665038 -59.473811 39.404031 12.563333 -8.597033 22.923720 8.302240 18.540245 0.000029 0.000024 0.000013 0.000000 0.000000 -0.000000 
-17.947382 103.463181 122.769180 169.383227 49.060477 141.288064 6.163681 2.806187 4.917281 11.979029 4.832983 11.601181 12.027190 4.656934 11.635635 0.194814 -10.154981 3.739511 16.146929 -47.609690 31.323951 0.000001 -0.000001 -0.000001 -0.098866 4.351928 -1.919163 15.734019 49.754387 -45.014570 0.000017 -64.869066 0.000022 28.203051 -27.388449 19.203772 0.047078 0.805462 -6.689923 0.047089 0.805518 -6.690535 0.047091 0.805523 -6.690526 0.000000 -0.000001 0.000002 -3.904041 2.504164 20.920176 3.939052 7.948706 0.746822 -0.579468 1.575009 2.538717 0.000001 0.000000 0.000001 0.979273 -0.093590 8.831945 -33.877301 0.900529 -5.482077 0.000004 35.163808 -0.000004 -24.018761 -24.472481 -15.099416 -1.849259 -3.581798 -6.586146 4.637189 -8.634136 -0.225414 -1.273756 0.137317 -2.094873 -0.000000 0.000001 -0.000000 0.031133 -0.658616 5.412637 0.031129 -0.658601 5.412649 0.031139 -0.658631 5.412623 -0.000000 -0.000002 0.000001 -61.149632 -0.510687 72.554859 25.086308 -6.584396 -3.933310 54.531042 -8.466108 -20.971485 -22.854006 -6.687518 15.511804 0.000001 -0.000000 -0.000000 -18.226800 -11.419556 -58.015292 32.633080 11.286947 -8.763284 20.120598 17.444474 18.907313 -0.000014 0.000015 0.000014 -0.000001 0.000000 0.000000 
-18.594753 100.150963 126.470818 171.512307 54.056077 139.520752 6.268237 2.919880 4.880176 12.242328 5.080858 11.082103 12.272280 4.981137 11.101975 0.198930 -9.207215 2.230016 10.405904 -45.841166 27.025056 -0.000001 -0.000000 0.000003 -0.183494 4.771113 1.131940 1.924895 52.043569 -24.528220 0.000023 -61.414923 0.000024 41.969586 -22.122677 28.777991 0.047078 0.805461 -6.689924 0.047089 0.805519 -6.690540 0.047090 0.805522 -6.690528 0.000000 -0.000003 0.000000 -3.904038 2.504164 20.920180 3.939052 7.948707 0.746824 -0.579468 1.575008 2.538716 0.000003 0.000000 -0.000000 0.995332 0.467665 7.693038 -29.172841 -10.504505 -9.272968 0.000004 30.496013 0.000001 -19.596827 -26.198755 -11.445473 -1.849260 -3.581793 -6.586144 4.637193 -8.634134 -0.225416 -1.273756 0.137316 -2.094872 -0.000002 -0.000001 0.000002 0.031132 -0.658613 5.412639 0.031129 -0.658595 5.412648 0.031139 -0.658629 5.412622 -0.000002 -0.000002 0.000000 -53.791452 0.877255 63.483822 15.890090 -12.517756 -0.284006 51.536567 -14.267380 0.724659 -41.632861 -1.033730 1.155875 0.000000 0.000003 0.000000 -17.791789 -11.167631 -55.986285 42.700676 10.097638 -9.337324 27.013473 17.897903 11.946262 -0.000009 -0.000026 0.000021 -0.000003 -0.000001 -0.000001 
-19.857647 96.187927 131.442078 172.602091 59.888000 139.658299 6.358745 2.579777 4.703932 12.483699 4.665248 10.572224 12.487844 4.658246 10.575202 -0.219367 -8.245633 0.714844 3.465015 -43.416900 20.845353 0.000001 -0.000001 0.000001 -0.275220 5.061863 2.674606 -10.185161 44.296676 -8.987715 0.000012 -55.077010 0.000007 48.886536 -18.259455 33.498413 0.047080 0.805461 -6.689926 0.047086 0.805518 -6.690536 0.047090 0.805526 -6.690527 -0.000000 -0.000001 0.000001 -3.904038 2.504165 20.920180 3.939052 7.948705 0.746824 -0.579469 1.575009 2.538717 0.000001 -0.000000 -0.000003 1.029406 1.129507 6.929025 -26.733367 -19.604111 -8.702981 0.000006 29.432262 -0.000004 -17.612966 -22.580291 -8.963169 -1.849256 -3.581795 -6.586146 4.637191 -8.634134 -0.225418 -1.273753 0.137314 -2.094874 -0.000001 0.000000 0.000000 0.031134 -0.658616 5.412639 0.031129 -0.658598 5.412650 0.031137 -0.658631 5.412622 -0.000000 -0.000001 -0.000000 -51.146427 -4.673443 56.595446 30.774350 -9.070343 7.500443 27.093988 -24.147384 3.151193 -25.860903 0.522616 -1.528987 -0.000000 -0.000003 0.000000 -19.829871 -7.712416 -53.284068 59.161780 9.145627 -9.784450 35.287387 9.087426 11.758561 -0.000025 -0.000005 0.000051 -0.000001 -0.000000 0.000000 
